# xmcd CD Database Entry
#
# Track frame offsets:
# 150
# 3677
# 15092
# 32405
# 47680
# 59100
# 72940
# 90907
# 102325
# 109925
# 115015
# 129682
# 142792
# 165052
# 183537
#
# Disc length: 2464 seconds
#
# Revision: 2
# Processed by: cddbd v1.4PL0 Copyright (c) Steve Scherf et al.
# Submitted via: tcd 2.0b
#
DISCID=b7099e0f
DTITLE=Snoopy's Classiks On Toys - Classical
DYEAR=1995
DGENRE=
TTITLE0=Fly On The Wings Of Love
TTITLE1=Beethoven: 5th Symphony
TTITLE2=Vivaldi: The Four Seasons (Spring)
TTITLE3=Handel: Water Music (Hornpipe)
TTITLE4=Bach: Toccata
TTITLE5=: Fugue in D Minor
TTITLE6=Mozart: Rondo alla Turka
TTITLE7=Beethoven: Theme from Ode to Joy
TTITLE8=: Allegro essai vivace all Marcia (9th Symphony)
TTITLE9=Brahms: Waltz in A Flat
TTITLE10=Chopin: Waltz in D Flat
TTITLE11=Tchaikovsky: Theme-Piano Concerto No.1
TTITLE12=Debussy: Arabesque No.1
TTITLE13=Ravel: Boléro
TTITLE14=Outro
EXTD=YEAR: 1995
EXTT0=
EXTT1=
EXTT2=
EXTT3=
EXTT4=
EXTT5=
EXTT6=
EXTT7=
EXTT8=
EXTT9=
EXTT10=
EXTT11=
EXTT12=
EXTT13=
EXTT14=
PLAYORDER=
